<mxfile host="app.diagrams.net" modified="2023-10-29T12:23:26.822Z" agent="Mozilla/5.0 (Windows NT 10.0; Win64; x64) AppleWebKit/537.36 (KHTML, like Gecko) Chrome/118.0.0.0 Safari/537.36" etag="a6rn2zXKvuzYL2e9JimQ" version="22.0.8" type="github" pages="2">
  <diagram name="Page-1" id="kRjBfXJGRdrcyqcTIUO7">
    <mxGraphModel dx="369" dy="193" grid="1" gridSize="10" guides="1" tooltips="1" connect="1" arrows="1" fold="1" page="1" pageScale="1" pageWidth="850" pageHeight="1100" math="0" shadow="0">
      <root>
        <mxCell id="0" />
        <mxCell id="1" parent="0" />
        <mxCell id="addV94oPn-WFwCKg7xSa-1" value="" style="rounded=0;whiteSpace=wrap;html=1;" vertex="1" parent="1">
          <mxGeometry x="360" y="272" width="120" height="60" as="geometry" />
        </mxCell>
        <mxCell id="addV94oPn-WFwCKg7xSa-3" value="" style="endArrow=none;html=1;rounded=0;exitX=-0.008;exitY=0.181;exitDx=0;exitDy=0;exitPerimeter=0;" edge="1" parent="1">
          <mxGeometry width="50" height="50" relative="1" as="geometry">
            <mxPoint x="360.03999999999996" y="280.85999999999996" as="sourcePoint" />
            <mxPoint x="300" y="280" as="targetPoint" />
          </mxGeometry>
        </mxCell>
        <mxCell id="addV94oPn-WFwCKg7xSa-4" value="" style="endArrow=none;html=1;rounded=0;exitX=-0.008;exitY=0.181;exitDx=0;exitDy=0;exitPerimeter=0;" edge="1" parent="1">
          <mxGeometry width="50" height="50" relative="1" as="geometry">
            <mxPoint x="360" y="295" as="sourcePoint" />
            <mxPoint x="300" y="294" as="targetPoint" />
          </mxGeometry>
        </mxCell>
        <mxCell id="addV94oPn-WFwCKg7xSa-5" value="" style="endArrow=none;html=1;rounded=0;exitX=-0.008;exitY=0.181;exitDx=0;exitDy=0;exitPerimeter=0;" edge="1" parent="1">
          <mxGeometry width="50" height="50" relative="1" as="geometry">
            <mxPoint x="360" y="311" as="sourcePoint" />
            <mxPoint x="300" y="311" as="targetPoint" />
          </mxGeometry>
        </mxCell>
        <mxCell id="addV94oPn-WFwCKg7xSa-6" value="" style="endArrow=none;html=1;rounded=0;exitX=-0.008;exitY=0.181;exitDx=0;exitDy=0;exitPerimeter=0;" edge="1" parent="1">
          <mxGeometry width="50" height="50" relative="1" as="geometry">
            <mxPoint x="360" y="325" as="sourcePoint" />
            <mxPoint x="300" y="324" as="targetPoint" />
          </mxGeometry>
        </mxCell>
        <mxCell id="addV94oPn-WFwCKg7xSa-7" value="" style="endArrow=none;html=1;rounded=0;" edge="1" parent="1">
          <mxGeometry width="50" height="50" relative="1" as="geometry">
            <mxPoint x="540" y="281" as="sourcePoint" />
            <mxPoint x="480" y="280" as="targetPoint" />
          </mxGeometry>
        </mxCell>
        <mxCell id="addV94oPn-WFwCKg7xSa-8" value="" style="endArrow=none;html=1;rounded=0;" edge="1" parent="1">
          <mxGeometry width="50" height="50" relative="1" as="geometry">
            <mxPoint x="540" y="295" as="sourcePoint" />
            <mxPoint x="480" y="294" as="targetPoint" />
          </mxGeometry>
        </mxCell>
        <mxCell id="addV94oPn-WFwCKg7xSa-9" value="" style="endArrow=none;html=1;rounded=0;" edge="1" parent="1">
          <mxGeometry width="50" height="50" relative="1" as="geometry">
            <mxPoint x="540" y="311" as="sourcePoint" />
            <mxPoint x="480" y="310" as="targetPoint" />
          </mxGeometry>
        </mxCell>
        <mxCell id="addV94oPn-WFwCKg7xSa-10" value="" style="endArrow=none;html=1;rounded=0;" edge="1" parent="1">
          <mxGeometry width="50" height="50" relative="1" as="geometry">
            <mxPoint x="540" y="327" as="sourcePoint" />
            <mxPoint x="480" y="326" as="targetPoint" />
          </mxGeometry>
        </mxCell>
        <mxCell id="addV94oPn-WFwCKg7xSa-11" value="&lt;font style=&quot;font-size: 8px;&quot;&gt;CLK&lt;/font&gt;" style="text;strokeColor=none;align=center;fillColor=none;html=1;verticalAlign=middle;whiteSpace=wrap;rounded=0;" vertex="1" parent="1">
          <mxGeometry x="280" y="274" width="20" height="10" as="geometry" />
        </mxCell>
        <mxCell id="addV94oPn-WFwCKg7xSa-16" value="&lt;font style=&quot;font-size: 8px;&quot;&gt;max_count&lt;/font&gt;" style="text;strokeColor=none;align=center;fillColor=none;html=1;verticalAlign=middle;whiteSpace=wrap;rounded=0;" vertex="1" parent="1">
          <mxGeometry x="268" y="287" width="20" height="10" as="geometry" />
        </mxCell>
        <mxCell id="addV94oPn-WFwCKg7xSa-18" value="&lt;font style=&quot;font-size: 8px;&quot;&gt;SW0&lt;/font&gt;" style="text;strokeColor=none;align=center;fillColor=none;html=1;verticalAlign=middle;whiteSpace=wrap;rounded=0;" vertex="1" parent="1">
          <mxGeometry x="279" y="305" width="20" height="10" as="geometry" />
        </mxCell>
        <mxCell id="addV94oPn-WFwCKg7xSa-19" value="&lt;font style=&quot;font-size: 8px;&quot;&gt;SW1&lt;/font&gt;" style="text;strokeColor=none;align=center;fillColor=none;html=1;verticalAlign=middle;whiteSpace=wrap;rounded=0;" vertex="1" parent="1">
          <mxGeometry x="279" y="319" width="20" height="10" as="geometry" />
        </mxCell>
        <mxCell id="addV94oPn-WFwCKg7xSa-20" value="&lt;font style=&quot;font-size: 8px;&quot;&gt;ce&lt;/font&gt;" style="text;strokeColor=none;align=center;fillColor=none;html=1;verticalAlign=middle;whiteSpace=wrap;rounded=0;" vertex="1" parent="1">
          <mxGeometry x="540" y="274" width="20" height="10" as="geometry" />
        </mxCell>
        <mxCell id="addV94oPn-WFwCKg7xSa-21" value="&lt;font style=&quot;font-size: 8px;&quot;&gt;disp_reset_n&lt;/font&gt;" style="text;strokeColor=none;align=center;fillColor=none;html=1;verticalAlign=middle;whiteSpace=wrap;rounded=0;" vertex="1" parent="1">
          <mxGeometry x="556" y="288" width="20" height="10" as="geometry" />
        </mxCell>
        <mxCell id="addV94oPn-WFwCKg7xSa-22" value="&lt;font style=&quot;font-size: 8px;&quot;&gt;LD0&lt;/font&gt;" style="text;strokeColor=none;align=center;fillColor=none;html=1;verticalAlign=middle;whiteSpace=wrap;rounded=0;" vertex="1" parent="1">
          <mxGeometry x="540" y="305" width="20" height="10" as="geometry" />
        </mxCell>
        <mxCell id="addV94oPn-WFwCKg7xSa-23" value="&lt;font style=&quot;font-size: 8px;&quot;&gt;reset_n&lt;/font&gt;" style="text;strokeColor=none;align=center;fillColor=none;html=1;verticalAlign=middle;whiteSpace=wrap;rounded=0;" vertex="1" parent="1">
          <mxGeometry x="545" y="320" width="20" height="10" as="geometry" />
        </mxCell>
        <mxCell id="addV94oPn-WFwCKg7xSa-24" value="System Controller" style="text;strokeColor=none;align=center;fillColor=none;html=1;verticalAlign=middle;whiteSpace=wrap;rounded=0;" vertex="1" parent="1">
          <mxGeometry x="390" y="287" width="60" height="30" as="geometry" />
        </mxCell>
      </root>
    </mxGraphModel>
  </diagram>
  <diagram id="Ctedv15E-z8-ymkGm_Lg" name="Page-2">
    <mxGraphModel dx="652" dy="340" grid="1" gridSize="10" guides="1" tooltips="1" connect="1" arrows="1" fold="1" page="1" pageScale="1" pageWidth="850" pageHeight="1100" math="0" shadow="0">
      <root>
        <mxCell id="0" />
        <mxCell id="1" parent="0" />
        <mxCell id="16V_wsp1cbJwVsquemOb-2" value="" style="endArrow=none;html=1;rounded=0;exitX=-0.008;exitY=0.181;exitDx=0;exitDy=0;exitPerimeter=0;" edge="1" parent="1">
          <mxGeometry width="50" height="50" relative="1" as="geometry">
            <mxPoint x="360.03999999999996" y="280.85999999999996" as="sourcePoint" />
            <mxPoint x="210" y="280" as="targetPoint" />
          </mxGeometry>
        </mxCell>
        <mxCell id="16V_wsp1cbJwVsquemOb-1" value="" style="rounded=0;whiteSpace=wrap;html=1;" vertex="1" parent="1">
          <mxGeometry x="360" y="272" width="120" height="48" as="geometry" />
        </mxCell>
        <mxCell id="16V_wsp1cbJwVsquemOb-3" value="" style="endArrow=none;html=1;rounded=0;exitX=-0.008;exitY=0.181;exitDx=0;exitDy=0;exitPerimeter=0;" edge="1" parent="1">
          <mxGeometry width="50" height="50" relative="1" as="geometry">
            <mxPoint x="360" y="295" as="sourcePoint" />
            <mxPoint x="210" y="294" as="targetPoint" />
          </mxGeometry>
        </mxCell>
        <mxCell id="16V_wsp1cbJwVsquemOb-4" value="" style="endArrow=none;html=1;rounded=0;exitX=-0.008;exitY=0.181;exitDx=0;exitDy=0;exitPerimeter=0;" edge="1" parent="1">
          <mxGeometry width="50" height="50" relative="1" as="geometry">
            <mxPoint x="360" y="311" as="sourcePoint" />
            <mxPoint x="300" y="311" as="targetPoint" />
          </mxGeometry>
        </mxCell>
        <mxCell id="16V_wsp1cbJwVsquemOb-6" value="" style="endArrow=none;html=1;rounded=0;" edge="1" parent="1">
          <mxGeometry width="50" height="50" relative="1" as="geometry">
            <mxPoint x="550" y="297" as="sourcePoint" />
            <mxPoint x="480" y="296" as="targetPoint" />
          </mxGeometry>
        </mxCell>
        <mxCell id="16V_wsp1cbJwVsquemOb-10" value="&lt;font style=&quot;font-size: 8px;&quot;&gt;CLK_100MHz&lt;/font&gt;" style="text;strokeColor=none;align=center;fillColor=none;html=1;verticalAlign=middle;whiteSpace=wrap;rounded=0;" vertex="1" parent="1">
          <mxGeometry x="308" y="269" width="20" height="10" as="geometry" />
        </mxCell>
        <mxCell id="16V_wsp1cbJwVsquemOb-11" value="&lt;font style=&quot;font-size: 8px;&quot;&gt;en&lt;/font&gt;" style="text;strokeColor=none;align=center;fillColor=none;html=1;verticalAlign=middle;whiteSpace=wrap;rounded=0;" vertex="1" parent="1">
          <mxGeometry x="295" y="284" width="20" height="10" as="geometry" />
        </mxCell>
        <mxCell id="16V_wsp1cbJwVsquemOb-12" value="&lt;font style=&quot;font-size: 8px;&quot;&gt;reset_n&lt;/font&gt;" style="text;strokeColor=none;align=center;fillColor=none;html=1;verticalAlign=middle;whiteSpace=wrap;rounded=0;" vertex="1" parent="1">
          <mxGeometry x="295" y="299" width="20" height="10" as="geometry" />
        </mxCell>
        <mxCell id="16V_wsp1cbJwVsquemOb-14" value="&lt;font style=&quot;font-size: 8px;&quot;&gt;ce&lt;/font&gt;" style="text;strokeColor=none;align=center;fillColor=none;html=1;verticalAlign=middle;whiteSpace=wrap;rounded=0;" vertex="1" parent="1">
          <mxGeometry x="990" y="460" width="20" height="10" as="geometry" />
        </mxCell>
        <mxCell id="16V_wsp1cbJwVsquemOb-18" value="Clock Divider 100MHz to 100Hz" style="text;strokeColor=none;align=center;fillColor=none;html=1;verticalAlign=middle;whiteSpace=wrap;rounded=0;" vertex="1" parent="1">
          <mxGeometry x="370" y="284" width="100" height="30" as="geometry" />
        </mxCell>
        <mxCell id="16V_wsp1cbJwVsquemOb-22" value="" style="shape=or;whiteSpace=wrap;html=1;" vertex="1" parent="1">
          <mxGeometry x="363" y="385" width="17" height="20" as="geometry" />
        </mxCell>
        <mxCell id="16V_wsp1cbJwVsquemOb-25" value="&lt;font style=&quot;font-size: 8px;&quot;&gt;ce&lt;/font&gt;" style="text;strokeColor=none;align=center;fillColor=none;html=1;verticalAlign=middle;whiteSpace=wrap;rounded=0;" vertex="1" parent="1">
          <mxGeometry x="550" y="289" width="20" height="10" as="geometry" />
        </mxCell>
        <mxCell id="16V_wsp1cbJwVsquemOb-26" value="" style="endArrow=none;html=1;rounded=0;" edge="1" parent="1">
          <mxGeometry width="50" height="50" relative="1" as="geometry">
            <mxPoint x="320" y="360" as="sourcePoint" />
            <mxPoint x="320" y="294" as="targetPoint" />
          </mxGeometry>
        </mxCell>
        <mxCell id="16V_wsp1cbJwVsquemOb-27" value="" style="endArrow=none;html=1;rounded=0;entryX=0;entryY=0.5;entryDx=0;entryDy=0;" edge="1" parent="1" target="16V_wsp1cbJwVsquemOb-21">
          <mxGeometry width="50" height="50" relative="1" as="geometry">
            <mxPoint x="320" y="360" as="sourcePoint" />
            <mxPoint x="360" y="360" as="targetPoint" />
          </mxGeometry>
        </mxCell>
        <mxCell id="16V_wsp1cbJwVsquemOb-28" value="" style="group" vertex="1" connectable="0" parent="1">
          <mxGeometry x="363" y="345" width="15" height="30" as="geometry" />
        </mxCell>
        <mxCell id="16V_wsp1cbJwVsquemOb-21" value="" style="triangle;whiteSpace=wrap;html=1;" vertex="1" parent="16V_wsp1cbJwVsquemOb-28">
          <mxGeometry width="10" height="30" as="geometry" />
        </mxCell>
        <mxCell id="16V_wsp1cbJwVsquemOb-24" value="" style="ellipse;whiteSpace=wrap;html=1;aspect=fixed;" vertex="1" parent="16V_wsp1cbJwVsquemOb-28">
          <mxGeometry x="10" y="12.5" width="5" height="5" as="geometry" />
        </mxCell>
        <mxCell id="16V_wsp1cbJwVsquemOb-29" value="" style="endArrow=none;html=1;rounded=0;exitX=-0.008;exitY=0.181;exitDx=0;exitDy=0;exitPerimeter=0;" edge="1" parent="1">
          <mxGeometry width="50" height="50" relative="1" as="geometry">
            <mxPoint x="362.99999999999994" y="390.85999999999996" as="sourcePoint" />
            <mxPoint x="210" y="390" as="targetPoint" />
          </mxGeometry>
        </mxCell>
        <mxCell id="16V_wsp1cbJwVsquemOb-30" value="&lt;font style=&quot;font-size: 8px;&quot;&gt;I1&lt;/font&gt;" style="text;strokeColor=none;align=center;fillColor=none;html=1;verticalAlign=middle;whiteSpace=wrap;rounded=0;" vertex="1" parent="1">
          <mxGeometry x="310" y="379" width="20" height="10" as="geometry" />
        </mxCell>
        <mxCell id="16V_wsp1cbJwVsquemOb-31" value="&lt;font style=&quot;font-size: 8px;&quot;&gt;I0&lt;/font&gt;" style="text;strokeColor=none;align=center;fillColor=none;html=1;verticalAlign=middle;whiteSpace=wrap;rounded=0;" vertex="1" parent="1">
          <mxGeometry x="310" y="401" width="20" height="10" as="geometry" />
        </mxCell>
        <mxCell id="16V_wsp1cbJwVsquemOb-32" value="" style="endArrow=none;html=1;rounded=0;exitX=-0.008;exitY=0.181;exitDx=0;exitDy=0;exitPerimeter=0;" edge="1" parent="1">
          <mxGeometry width="50" height="50" relative="1" as="geometry">
            <mxPoint x="359.99999999999994" y="400.85999999999996" as="sourcePoint" />
            <mxPoint x="210" y="400" as="targetPoint" />
          </mxGeometry>
        </mxCell>
        <mxCell id="16V_wsp1cbJwVsquemOb-33" value="" style="ellipse;whiteSpace=wrap;html=1;aspect=fixed;" vertex="1" parent="1">
          <mxGeometry x="358" y="398" width="5" height="5" as="geometry" />
        </mxCell>
        <mxCell id="16V_wsp1cbJwVsquemOb-34" value="" style="endArrow=none;html=1;rounded=0;" edge="1" parent="1">
          <mxGeometry width="50" height="50" relative="1" as="geometry">
            <mxPoint x="380" y="360" as="sourcePoint" />
            <mxPoint x="550" y="360" as="targetPoint" />
          </mxGeometry>
        </mxCell>
        <mxCell id="16V_wsp1cbJwVsquemOb-35" value="" style="endArrow=none;html=1;rounded=0;" edge="1" parent="1">
          <mxGeometry width="50" height="50" relative="1" as="geometry">
            <mxPoint x="380" y="394.83" as="sourcePoint" />
            <mxPoint x="550" y="394.83" as="targetPoint" />
          </mxGeometry>
        </mxCell>
        <mxCell id="16V_wsp1cbJwVsquemOb-36" value="" style="endArrow=none;html=1;rounded=0;" edge="1" parent="1">
          <mxGeometry width="50" height="50" relative="1" as="geometry">
            <mxPoint x="290" y="430" as="sourcePoint" />
            <mxPoint x="290" y="390" as="targetPoint" />
          </mxGeometry>
        </mxCell>
        <mxCell id="16V_wsp1cbJwVsquemOb-37" value="" style="endArrow=none;html=1;rounded=0;" edge="1" parent="1">
          <mxGeometry width="50" height="50" relative="1" as="geometry">
            <mxPoint x="290" y="430" as="sourcePoint" />
            <mxPoint x="550" y="430" as="targetPoint" />
          </mxGeometry>
        </mxCell>
        <mxCell id="16V_wsp1cbJwVsquemOb-38" value="" style="endArrow=none;html=1;rounded=0;" edge="1" parent="1">
          <mxGeometry width="50" height="50" relative="1" as="geometry">
            <mxPoint x="330" y="330" as="sourcePoint" />
            <mxPoint x="330" y="310" as="targetPoint" />
          </mxGeometry>
        </mxCell>
        <mxCell id="16V_wsp1cbJwVsquemOb-39" value="" style="endArrow=none;html=1;rounded=0;" edge="1" parent="1">
          <mxGeometry width="50" height="50" relative="1" as="geometry">
            <mxPoint x="330" y="330" as="sourcePoint" />
            <mxPoint x="420" y="330" as="targetPoint" />
          </mxGeometry>
        </mxCell>
        <mxCell id="16V_wsp1cbJwVsquemOb-40" value="" style="endArrow=none;html=1;rounded=0;" edge="1" parent="1">
          <mxGeometry width="50" height="50" relative="1" as="geometry">
            <mxPoint x="420" y="395" as="sourcePoint" />
            <mxPoint x="420" y="330" as="targetPoint" />
          </mxGeometry>
        </mxCell>
        <mxCell id="16V_wsp1cbJwVsquemOb-41" value="&lt;font style=&quot;font-size: 8px;&quot;&gt;CLK&lt;/font&gt;" style="text;strokeColor=none;align=center;fillColor=none;html=1;verticalAlign=middle;whiteSpace=wrap;rounded=0;" vertex="1" parent="1">
          <mxGeometry x="200" y="269" width="20" height="10" as="geometry" />
        </mxCell>
        <mxCell id="16V_wsp1cbJwVsquemOb-42" value="&lt;font style=&quot;font-size: 8px;&quot;&gt;SW0&lt;/font&gt;" style="text;strokeColor=none;align=center;fillColor=none;html=1;verticalAlign=middle;whiteSpace=wrap;rounded=0;" vertex="1" parent="1">
          <mxGeometry x="200" y="284" width="20" height="10" as="geometry" />
        </mxCell>
        <mxCell id="16V_wsp1cbJwVsquemOb-43" value="&lt;font style=&quot;font-size: 8px;&quot;&gt;SW1&lt;/font&gt;" style="text;strokeColor=none;align=center;fillColor=none;html=1;verticalAlign=middle;whiteSpace=wrap;rounded=0;" vertex="1" parent="1">
          <mxGeometry x="200" y="377" width="20" height="10" as="geometry" />
        </mxCell>
        <mxCell id="16V_wsp1cbJwVsquemOb-44" value="&lt;font style=&quot;font-size: 8px;&quot;&gt;Max_count&lt;/font&gt;" style="text;strokeColor=none;align=center;fillColor=none;html=1;verticalAlign=middle;whiteSpace=wrap;rounded=0;" vertex="1" parent="1">
          <mxGeometry x="198" y="402" width="20" height="10" as="geometry" />
        </mxCell>
        <mxCell id="2bbCnIbZ08FS09Kgs5ro-1" value="&lt;font style=&quot;font-size: 8px;&quot;&gt;disp_reset_n&lt;/font&gt;" style="text;strokeColor=none;align=center;fillColor=none;html=1;verticalAlign=middle;whiteSpace=wrap;rounded=0;" vertex="1" parent="1">
          <mxGeometry x="565" y="423" width="20" height="10" as="geometry" />
        </mxCell>
        <mxCell id="lxs5UNuvUbng7vhWwC6X-1" value="&lt;font style=&quot;font-size: 8px;&quot;&gt;reset_n&lt;/font&gt;" style="text;strokeColor=none;align=center;fillColor=none;html=1;verticalAlign=middle;whiteSpace=wrap;rounded=0;" vertex="1" parent="1">
          <mxGeometry x="559" y="388" width="20" height="10" as="geometry" />
        </mxCell>
        <mxCell id="lxs5UNuvUbng7vhWwC6X-2" value="&lt;font style=&quot;font-size: 8px;&quot;&gt;LD0&lt;/font&gt;" style="text;strokeColor=none;align=center;fillColor=none;html=1;verticalAlign=middle;whiteSpace=wrap;rounded=0;" vertex="1" parent="1">
          <mxGeometry x="559" y="355" width="20" height="10" as="geometry" />
        </mxCell>
        <mxCell id="lxs5UNuvUbng7vhWwC6X-3" value="" style="endArrow=none;html=1;rounded=0;" edge="1" parent="1">
          <mxGeometry width="50" height="50" relative="1" as="geometry">
            <mxPoint x="260" y="460" as="sourcePoint" />
            <mxPoint x="260" y="240" as="targetPoint" />
          </mxGeometry>
        </mxCell>
        <mxCell id="lxs5UNuvUbng7vhWwC6X-4" value="" style="endArrow=none;html=1;rounded=0;" edge="1" parent="1">
          <mxGeometry width="50" height="50" relative="1" as="geometry">
            <mxPoint x="520" y="460" as="sourcePoint" />
            <mxPoint x="520" y="240" as="targetPoint" />
          </mxGeometry>
        </mxCell>
        <mxCell id="lxs5UNuvUbng7vhWwC6X-5" value="" style="endArrow=none;html=1;rounded=0;" edge="1" parent="1">
          <mxGeometry width="50" height="50" relative="1" as="geometry">
            <mxPoint x="260" y="240" as="sourcePoint" />
            <mxPoint x="520" y="240" as="targetPoint" />
          </mxGeometry>
        </mxCell>
        <mxCell id="lxs5UNuvUbng7vhWwC6X-6" value="" style="endArrow=none;html=1;rounded=0;" edge="1" parent="1">
          <mxGeometry width="50" height="50" relative="1" as="geometry">
            <mxPoint x="260" y="460" as="sourcePoint" />
            <mxPoint x="520" y="460" as="targetPoint" />
          </mxGeometry>
        </mxCell>
        <mxCell id="lx__-hAErMwPhLieQbX8-1" value="System Controller" style="text;strokeColor=none;align=center;fillColor=none;html=1;verticalAlign=middle;whiteSpace=wrap;rounded=0;" vertex="1" parent="1">
          <mxGeometry x="360" y="210" width="60" height="30" as="geometry" />
        </mxCell>
      </root>
    </mxGraphModel>
  </diagram>
</mxfile>
